<svg version="1.1" id="Layer_1" xmlns="http://www.w3.org/2000/svg" xmlns:xlink="http://www.w3.org/1999/xlink" x="0px" y="0px"
	 width="100%" viewBox="0 0 512 512" enable-background="new 0 0 512 512" xml:space="preserve">
<path fill="#101F3B" opacity="1.000000" stroke="none" 
	d="
M1.000000,512.000000 
	C1.000000,512.000000 1.000000,511.500000 1.268197,510.932495 
	C1.690808,508.890015 1.980292,507.415131 1.980473,505.940155 
	C2.000836,340.036102 2.002695,174.132050 1.958243,8.228003 
	C1.957776,6.485249 1.333214,4.742664 1.000000,3.000000 
	C1.000000,3.000000 1.000000,2.500000 1.462635,2.252451 
	C172.283508,2.003268 342.641754,2.001634 513.000000,2.000000 
	C513.000000,2.000000 513.000000,2.500000 512.731812,3.067514 
	C512.309021,5.109988 512.019409,6.584932 512.019226,8.059912 
	C511.998840,173.963943 511.996887,339.867981 512.041443,505.772003 
	C512.041931,507.514740 512.666687,509.257324 513.000000,511.000000 
	C513.000000,511.000000 513.000000,511.500000 512.537354,511.747559 
	C341.716461,511.996704 171.358231,511.998352 1.000000,512.000000 
M407.916534,471.899689 
	C429.568024,470.393066 446.948975,461.067383 459.721649,443.442352 
	C467.740875,432.376556 471.375641,419.783051 473.036682,405.745819 
	C473.357788,403.662262 473.954742,401.579193 473.958649,399.495026 
	C474.018158,367.835510 474.000000,336.175873 474.000000,304.516235 
	C474.000000,240.530457 474.018127,176.544647 473.925690,112.559013 
	C473.922394,110.284187 472.824554,108.010956 471.933807,105.066048 
	C469.447662,79.234505 457.025818,59.909958 433.482330,48.736599 
	C425.996185,45.183777 417.382843,44.006153 408.745636,40.963451 
	C406.662018,40.642204 404.578857,40.044037 402.494751,40.040840 
	C365.501678,39.984100 328.508484,39.999699 291.515320,39.999695 
	C231.526398,39.999695 171.537460,39.980232 111.548683,40.074745 
	C109.277573,40.078320 107.008202,41.185299 104.164078,42.177780 
	C70.481613,45.388477 48.764221,70.067665 43.654919,95.754333 
	C43.042515,98.833130 42.493908,101.924614 41.169991,105.265709 
	C40.779896,107.287949 40.053078,109.309601 40.049541,111.332512 
	C39.982063,149.949631 39.999699,188.566895 39.999695,227.184128 
	C39.999695,285.609344 39.979713,344.034576 40.074947,402.459625 
	C40.078644,404.726929 41.187805,406.992401 42.181290,409.811890 
	C42.448528,411.283661 42.723705,412.754059 42.981838,414.227448 
	C47.705128,441.187561 62.950733,459.399139 88.737793,468.451996 
	C94.468414,470.463776 100.709633,471.021149 107.251259,473.030792 
	C109.334015,473.353851 111.416306,473.955078 113.499588,473.958588 
	C148.160446,474.016754 182.821442,474.000000 217.482407,474.000000 
	C278.472382,474.000000 339.462372,474.019196 400.452179,473.924713 
	C402.721161,473.921143 404.988434,472.810120 407.916534,471.899689 
z"/>
<path fill="#1D2B46" opacity="1.000000" stroke="none" 
	d="
M1.000000,512.500000 
	C171.358231,511.998352 341.716461,511.996704 512.537354,511.997528 
	C511.834808,512.333313 510.670471,512.953674 509.504272,512.957214 
	C490.023438,513.017212 470.542358,513.000000 451.061340,513.000000 
	C301.040894,513.000000 151.020447,513.000000 1.000000,512.500000 
z"/>
<path fill="#1D2B46" opacity="1.000000" stroke="none" 
	d="
M513.000000,1.500000 
	C342.641754,2.001634 172.283508,2.003268 1.462635,2.002451 
	C2.333333,1.666667 3.665788,1.047021 5.000132,1.042927 
	C25.166609,0.981056 45.333332,1.000000 65.500000,1.000000 
	C214.666672,1.000000 363.833344,1.000000 513.000000,1.500000 
z"/>
<path fill="#1D2B46" opacity="1.000000" stroke="none" 
	d="
M513.000000,510.531342 
	C512.666687,509.257324 512.041931,507.514740 512.041443,505.772003 
	C511.996887,339.867981 511.998840,173.963943 512.019226,8.059912 
	C512.019409,6.584932 512.309021,5.109988 512.731812,3.317514 
	C513.000000,172.020889 513.000000,341.041779 513.000000,510.531342 
z"/>
<path fill="#1D2B46" opacity="1.000000" stroke="none" 
	d="
M1.000000,3.468657 
	C1.333214,4.742664 1.957776,6.485249 1.958243,8.228003 
	C2.002695,174.132050 2.000836,340.036102 1.980473,505.940155 
	C1.980292,507.415131 1.690808,508.890015 1.268197,510.682495 
	C1.000000,341.979095 1.000000,172.958206 1.000000,3.468657 
z"/>
<path fill="#D9BC45" opacity="1.000000" stroke="none" 
	d="
M409.285278,41.741653 
	C417.382843,44.006153 425.996185,45.183777 433.482330,48.736599 
	C457.025818,59.909958 469.447662,79.234505 472.007935,105.833145 
	C472.063812,205.502304 472.044861,304.404388 472.036926,403.306458 
	C472.036865,404.299347 472.182129,405.292206 472.259521,406.285095 
	C471.375641,419.783051 467.740875,432.376556 459.721649,443.442352 
	C446.948975,461.067383 429.568024,470.393066 407.149780,471.978699 
	C307.820312,472.044159 209.257568,472.029694 110.694824,472.026642 
	C109.368469,472.026611 108.042107,472.171143 106.715752,472.248230 
	C100.709633,471.021149 94.468414,470.463776 88.737793,468.451996 
	C62.950733,459.399139 47.705128,441.187561 42.981838,414.227448 
	C42.723705,412.754059 42.448528,411.283661 42.056316,409.091461 
	C41.951275,372.886993 41.991825,337.402924 41.986671,301.918884 
	C41.977146,236.282669 41.940865,170.646439 41.915733,105.010216 
	C42.493908,101.924614 43.042515,98.833130 43.654919,95.754333 
	C48.764221,70.067665 70.481613,45.388477 104.883560,42.049168 
	C200.175751,41.939068 294.748444,41.962376 389.321136,41.965843 
	C395.975861,41.966087 402.630554,41.819798 409.285278,41.741653 
M410.643616,58.004780 
	C408.592590,57.668804 406.541840,57.041023 404.490540,57.039265 
	C343.377167,56.986897 282.263763,56.996433 221.150360,56.996414 
	C183.683014,56.996403 146.215607,56.971851 108.748505,57.069443 
	C106.847023,57.074390 104.948280,58.133083 102.311043,59.021622 
	C89.197678,61.282269 78.319359,67.395996 69.888664,77.768028 
	C63.640408,85.455070 60.492893,94.441101 58.053585,104.325066 
	C57.701431,106.368546 57.043186,108.411781 57.041504,110.455551 
	C56.987579,176.087051 56.997078,241.718628 56.997093,307.350189 
	C56.997097,339.666229 56.967766,371.982391 57.072044,404.298096 
	C57.078144,406.187988 58.164612,408.074371 59.065884,410.694275 
	C60.450882,419.699677 63.627029,427.950592 69.188263,435.250977 
	C78.012459,446.834747 89.980087,452.906311 104.371819,456.036255 
	C106.429108,456.358643 108.486099,456.960297 110.543739,456.962524 
	C159.321884,457.015320 208.100113,457.003693 256.878326,457.003632 
	C305.989502,457.003540 355.100708,457.021759 404.211731,456.933136 
	C406.124573,456.929688 408.035583,455.901489 410.708130,455.051147 
	C412.667694,454.675964 414.640167,454.357635 416.584869,453.916840 
	C437.141052,449.257477 453.583069,430.484802 455.337280,409.250092 
	C455.492310,406.593170 455.782227,403.936279 455.782867,401.279327 
	C455.806030,305.482788 455.808380,209.686234 455.772766,113.889702 
	C455.771667,110.915222 455.338165,107.940895 455.171539,104.127388 
	C454.522430,95.437561 451.386139,87.686890 446.451782,80.564606 
	C437.800293,68.076942 425.727142,61.208904 410.643616,58.004780 
z"/>
<path fill="#041639" opacity="1.000000" stroke="none" 
	d="
M41.542862,105.137962 
	C41.940865,170.646439 41.977146,236.282669 41.986671,301.918884 
	C41.991825,337.402924 41.951275,372.886993 41.856598,408.814880 
	C41.187805,406.992401 40.078644,404.726929 40.074947,402.459625 
	C39.979713,344.034576 39.999695,285.609344 39.999695,227.184128 
	C39.999699,188.566895 39.982063,149.949631 40.049541,111.332512 
	C40.053078,109.309601 40.779896,107.287949 41.542862,105.137962 
z"/>
<path fill="#041639" opacity="1.000000" stroke="none" 
	d="
M472.648102,406.015442 
	C472.182129,405.292206 472.036865,404.299347 472.036926,403.306458 
	C472.044861,304.404388 472.063812,205.502304 472.159424,106.168610 
	C472.824554,108.010956 473.922394,110.284187 473.925690,112.559013 
	C474.018127,176.544647 474.000000,240.530457 474.000000,304.516235 
	C474.000000,336.175873 474.018158,367.835510 473.958649,399.495026 
	C473.954742,401.579193 473.357788,403.662262 472.648102,406.015442 
z"/>
<path fill="#041639" opacity="1.000000" stroke="none" 
	d="
M106.983505,472.639526 
	C108.042107,472.171143 109.368469,472.026611 110.694824,472.026642 
	C209.257568,472.029694 307.820312,472.044159 406.819763,472.136475 
	C404.988434,472.810120 402.721161,473.921143 400.452179,473.924713 
	C339.462372,474.019196 278.472382,474.000000 217.482407,474.000000 
	C182.821442,474.000000 148.160446,474.016754 113.499588,473.958588 
	C111.416306,473.955078 109.334015,473.353851 106.983505,472.639526 
z"/>
<path fill="#041639" opacity="1.000000" stroke="none" 
	d="
M409.015442,41.352551 
	C402.630554,41.819798 395.975861,41.966087 389.321136,41.965843 
	C294.748444,41.962376 200.175751,41.939068 105.170532,41.849327 
	C107.008202,41.185299 109.277573,40.078320 111.548683,40.074745 
	C171.537460,39.980232 231.526398,39.999695 291.515320,39.999695 
	C328.508484,39.999699 365.501678,39.984100 402.494751,40.040840 
	C404.578857,40.044037 406.662018,40.642204 409.015442,41.352551 
z"/>
<path fill="#101F3B" opacity="1.000000" stroke="none" 
	d="
M455.057861,410.017212 
	C453.583069,430.484802 437.141052,449.257477 416.584869,453.916840 
	C414.640167,454.357635 412.667694,454.675964 409.934845,455.157166 
	C408.114532,455.195953 407.067505,455.128693 405.710327,454.780060 
	C403.928467,454.332428 402.456787,454.021088 400.985046,454.020721 
	C305.039001,453.997772 209.092941,453.994293 113.146919,454.045654 
	C111.420052,454.046570 109.693542,454.731018 107.584183,455.191467 
	C106.152756,455.307953 105.104027,455.329468 104.055298,455.350983 
	C89.980087,452.906311 78.012459,446.834747 69.188263,435.250977 
	C63.627029,427.950592 60.450882,419.699677 58.957985,409.864868 
	C58.806778,406.707031 58.725430,404.378540 58.725647,402.050079 
	C58.734795,302.711945 58.751209,203.373840 58.766727,104.035713 
	C60.492893,94.441101 63.640408,85.455070 69.888664,77.768028 
	C78.319359,67.395996 89.197678,61.282269 103.072395,58.894913 
	C104.878159,58.813824 105.922577,58.859440 107.273682,59.192871 
	C109.050079,59.653873 110.519760,59.978291 111.989517,59.978653 
	C208.601242,60.002552 305.212982,60.005806 401.824677,59.955971 
	C403.556915,59.955078 405.288849,59.291061 407.405060,58.840263 
	C408.842682,58.729622 409.896179,58.715172 410.949646,58.700722 
	C425.727142,61.208904 437.800293,68.076942 446.451782,80.564606 
	C451.386139,87.686890 454.522430,95.437561 454.881104,104.874207 
	C454.421448,107.425232 454.104553,109.229393 454.104126,111.033638 
	C454.080292,208.777786 454.077484,306.521942 454.123779,404.266052 
	C454.124695,406.183258 454.732971,408.100159 455.057861,410.017212 
M218.775711,195.849808 
	C218.588379,195.696671 218.401031,195.543533 218.403824,194.690369 
	C220.923126,188.946030 223.442429,183.201691 226.163986,176.996170 
	C206.267838,176.996170 186.968262,177.097900 167.671814,176.897827 
	C164.387741,176.863785 163.151733,178.064850 161.923721,180.849228 
	C143.797348,221.949036 125.539627,262.990875 107.327225,304.052765 
	C101.889313,316.313141 96.495026,328.592865 91.006905,341.031097 
	C91.885040,341.288940 92.330032,341.533447 92.775284,341.533905 
	C111.937988,341.554077 131.101639,341.631683 150.261673,341.404999 
	C151.811798,341.386688 154.038254,339.594086 154.759506,338.064423 
	C159.299393,328.436035 163.474380,318.636292 167.822342,308.916565 
	C176.583267,289.331818 184.624634,269.375458 194.409088,250.314835 
	C201.561829,236.380920 210.975952,224.111633 229.421326,223.340164 
	C239.194153,222.931427 245.131378,227.910065 242.843903,237.586075 
	C241.857849,241.757095 240.096924,245.784500 238.357727,249.731613 
	C225.480164,278.957336 212.516525,308.145081 199.594650,337.351288 
	C199.041031,338.602631 198.631683,339.917786 198.025482,341.553009 
	C218.214844,341.553009 237.707306,341.494476 257.198730,341.609558 
	C260.517975,341.629150 261.803741,339.916382 262.980103,337.243500 
	C274.642822,310.743591 286.154449,284.172363 298.260925,257.875488 
	C301.979004,249.799286 306.731628,241.986603 312.206573,234.988998 
	C318.250397,227.264267 326.890625,223.011688 336.978058,222.800491 
	C345.846069,222.614838 351.303802,229.324997 349.342773,237.978043 
	C348.539124,241.524063 347.311646,245.025101 345.857574,248.363922 
	C338.881470,264.381927 331.763763,280.338226 324.692871,296.314911 
	C318.118408,311.169891 311.539612,326.022949 304.664246,341.551056 
	C306.796448,341.551056 308.227814,341.551025 309.659149,341.551025 
	C327.322205,341.551086 344.986938,341.421478 362.647034,341.650482 
	C366.626007,341.702087 368.486786,340.381317 370.064453,336.782227 
	C384.492615,303.867401 399.429657,271.171844 413.510590,238.110947 
	C417.897034,227.811920 421.298248,216.782730 423.072876,205.753525 
	C425.841858,188.544113 416.316711,176.573364 399.160309,173.864975 
	C380.697418,170.950317 362.893250,173.455063 346.402771,182.457565 
	C336.800171,187.699799 327.655609,193.781036 318.139313,199.585815 
	C317.992828,198.915649 317.824188,198.153687 317.659790,197.390808 
	C314.319183,181.892151 308.233795,175.763092 292.272247,173.673080 
	C264.592712,170.048737 240.312943,178.066040 218.775711,195.849808 
z"/>
<path fill="#F7D446" opacity="1.000000" stroke="none" 
	d="
M106.966988,58.905056 
	C105.922577,58.859440 104.878159,58.813824 103.441010,58.734680 
	C104.948280,58.133083 106.847023,57.074390 108.748505,57.069443 
	C146.215607,56.971851 183.683014,56.996403 221.150360,56.996414 
	C282.263763,56.996433 343.377167,56.986897 404.490540,57.039265 
	C406.541840,57.041023 408.592590,57.668804 410.796631,58.352753 
	C409.896179,58.715172 408.842682,58.729622 406.949341,58.714554 
	C307.217896,58.666733 208.326324,58.647758 109.434761,58.641510 
	C108.612175,58.641460 107.789581,58.813412 106.966988,58.905056 
z"/>
<path fill="#F7D446" opacity="1.000000" stroke="none" 
	d="
M406.020477,455.061462 
	C407.067505,455.128693 408.114532,455.195953 409.554504,455.307007 
	C408.035583,455.901489 406.124573,456.929688 404.211731,456.933136 
	C355.100708,457.021759 305.989502,457.003540 256.878326,457.003632 
	C208.100113,457.003693 159.321884,457.015320 110.543739,456.962524 
	C108.486099,456.960297 106.429108,456.358643 104.213562,455.693604 
	C105.104027,455.329468 106.152756,455.307953 108.043495,455.305115 
	C206.943451,455.339081 305.001404,455.355194 403.059357,455.356750 
	C404.046387,455.356750 405.033447,455.164124 406.020477,455.061462 
z"/>
<path fill="#F1D045" opacity="1.000000" stroke="none" 
	d="
M58.410156,104.180389 
	C58.751209,203.373840 58.734795,302.711945 58.725647,402.050079 
	C58.725430,404.378540 58.806778,406.707031 58.799194,409.498962 
	C58.164612,408.074371 57.078144,406.187988 57.072044,404.298096 
	C56.967766,371.982391 56.997097,339.666229 56.997093,307.350189 
	C56.997078,241.718628 56.987579,176.087051 57.041504,110.455551 
	C57.043186,108.411781 57.701431,106.368546 58.410156,104.180389 
z"/>
<path fill="#2F3540" opacity="1.000000" stroke="none" 
	d="
M455.197571,409.633667 
	C454.732971,408.100159 454.124695,406.183258 454.123779,404.266052 
	C454.077484,306.521942 454.080292,208.777786 454.104126,111.033638 
	C454.104553,109.229393 454.421448,107.425232 454.848450,105.293762 
	C455.338165,107.940895 455.771667,110.915222 455.772766,113.889702 
	C455.808380,209.686234 455.806030,305.482788 455.782867,401.279327 
	C455.782227,403.936279 455.492310,406.593170 455.197571,409.633667 
z"/>
<path fill="#FDFDFE" opacity="1.000000" stroke="none" 
	d="
M219.321686,196.328156 
	C240.312943,178.066040 264.592712,170.048737 292.272247,173.673080 
	C308.233795,175.763092 314.319183,181.892151 317.659790,197.390808 
	C317.824188,198.153687 317.992828,198.915649 318.139313,199.585815 
	C327.655609,193.781036 336.800171,187.699799 346.402771,182.457565 
	C362.893250,173.455063 380.697418,170.950317 399.160309,173.864975 
	C416.316711,176.573364 425.841858,188.544113 423.072876,205.753525 
	C421.298248,216.782730 417.897034,227.811920 413.510590,238.110947 
	C399.429657,271.171844 384.492615,303.867401 370.064453,336.782227 
	C368.486786,340.381317 366.626007,341.702087 362.647034,341.650482 
	C344.986938,341.421478 327.322205,341.551086 309.659149,341.551025 
	C308.227814,341.551025 306.796448,341.551056 304.664246,341.551056 
	C311.539612,326.022949 318.118408,311.169891 324.692871,296.314911 
	C331.763763,280.338226 338.881470,264.381927 345.857574,248.363922 
	C347.311646,245.025101 348.539124,241.524063 349.342773,237.978043 
	C351.303802,229.324997 345.846069,222.614838 336.978058,222.800491 
	C326.890625,223.011688 318.250397,227.264267 312.206573,234.988998 
	C306.731628,241.986603 301.979004,249.799286 298.260925,257.875488 
	C286.154449,284.172363 274.642822,310.743591 262.980103,337.243500 
	C261.803741,339.916382 260.517975,341.629150 257.198730,341.609558 
	C237.707306,341.494476 218.214844,341.553009 198.025482,341.553009 
	C198.631683,339.917786 199.041031,338.602631 199.594650,337.351288 
	C212.516525,308.145081 225.480164,278.957336 238.357727,249.731613 
	C240.096924,245.784500 241.857849,241.757095 242.843903,237.586075 
	C245.131378,227.910065 239.194153,222.931427 229.421326,223.340164 
	C210.975952,224.111633 201.561829,236.380920 194.409088,250.314835 
	C184.624634,269.375458 176.583267,289.331818 167.822342,308.916565 
	C163.474380,318.636292 159.299393,328.436035 154.759506,338.064423 
	C154.038254,339.594086 151.811798,341.386688 150.261673,341.404999 
	C131.101639,341.631683 111.937988,341.554077 92.775284,341.533905 
	C92.330032,341.533447 91.885040,341.288940 91.006905,341.031097 
	C96.495026,328.592865 101.889313,316.313141 107.327225,304.052765 
	C125.539627,262.990875 143.797348,221.949036 161.923721,180.849228 
	C163.151733,178.064850 164.387741,176.863785 167.671814,176.897827 
	C186.968262,177.097900 206.267838,176.996170 226.163986,176.996170 
	C223.442429,183.201691 220.923126,188.946030 218.065735,195.229233 
	C217.598602,196.124893 217.469574,196.481705 217.340530,196.838501 
	C218.000916,196.668396 218.661301,196.498276 219.321686,196.328156 
z"/>
<path fill="#00093A" opacity="1.000000" stroke="none" 
	d="
M107.273682,59.192871 
	C107.789581,58.813412 108.612175,58.641460 109.434761,58.641510 
	C208.326324,58.647758 307.217896,58.666733 406.565186,58.810745 
	C405.288849,59.291061 403.556915,59.955078 401.824677,59.955971 
	C305.212982,60.005806 208.601242,60.002552 111.989517,59.978653 
	C110.519760,59.978291 109.050079,59.653873 107.273682,59.192871 
z"/>
<path fill="#00093A" opacity="1.000000" stroke="none" 
	d="
M405.710327,454.780029 
	C405.033447,455.164124 404.046387,455.356750 403.059357,455.356750 
	C305.001404,455.355194 206.943451,455.339081 108.426193,455.210175 
	C109.693542,454.731018 111.420052,454.046570 113.146919,454.045654 
	C209.092941,453.994293 305.039001,453.997772 400.985046,454.020721 
	C402.456787,454.021088 403.928467,454.332428 405.710327,454.780029 
z"/>
<path fill="#101F3B" opacity="1.000000" stroke="none" 
	d="
M219.048706,196.088989 
	C218.661301,196.498276 218.000916,196.668396 217.340530,196.838501 
	C217.469574,196.481705 217.598602,196.124893 217.970673,195.579254 
	C218.401031,195.543533 218.588379,195.696671 219.048706,196.088989 
z"/>
</svg>